PathFileType	4	(X/Y/Z)	s03c0403.trc
DataRate	CameraRate	NumFrames	NumMarkers	Units	OrigDataRate	OrigDataStartFrame	OrigNumFrames
200	200	4	52	mm	200	750	2000
Frame#	Time	racr			lacr			c7			jug			rlel			rdr			llel			ldr			s2			lic			ric			lasi			rasi			rpsi			lpsi			rgt			lgt			rth1			rth2			rth3			rth4			rlfc			rmfc			rsh1			rsh2			rsh3			rsh4			rlmal			rmmal			rcal			rtoe			rmt5			rmt1			lth1			lth2			lth4			lth3			llfc			lmfc			lsh1			lsh2			lsh3			lsh4			llmal			lmmal			lcal			ltoe			lmt1			lmt5			SBIKE			LBIKE			RBIKE			
		X1	Y1	Z1	X2	Y2	Z2	X3	Y3	Z3	X4	Y4	Z4	X5	Y5	Z5	X6	Y6	Z6	X7	Y7	Z7	X8	Y8	Z8	X9	Y9	Z9	X10	Y10	Z10	X11	Y11	Z11	X12	Y12	Z12	X13	Y13	Z13	X14	Y14	Z14	X15	Y15	Z15	X16	Y16	Z16	X17	Y17	Z17	X18	Y18	Z18	X19	Y19	Z19	X20	Y20	Z20	X21	Y21	Z21	X22	Y22	Z22	X23	Y23	Z23	X24	Y24	Z24	X25	Y25	Z25	X26	Y26	Z26	X27	Y27	Z27	X28	Y28	Z28	X29	Y29	Z29	X30	Y30	Z30	X31	Y31	Z31	X32	Y32	Z32	X33	Y33	Z33	X34	Y34	Z34	X35	Y35	Z35	X36	Y36	Z36	X37	Y37	Z37	X38	Y38	Z38	X39	Y39	Z39	X40	Y40	Z40	X41	Y41	Z41	X42	Y42	Z42	X43	Y43	Z43	X44	Y44	Z44	X45	Y45	Z45	X46	Y46	Z46	X47	Y47	Z47	X48	Y48	Z48	X49	Y49	Z49	X50	Y50	Z50	X51	Y51	Z51	X52	Y52	Z52	
750	3.7500	768.218894	1408.000460	-20.377783	826.730040	1436.202751	-356.618602	753.506914	1527.086115	-188.934631	755.492774	1354.734522	-194.386497	586.833581	1194.915018	83.373150	740.900240	986.842528	-10.680970	659.572036	1238.684114	-514.157765	745.591551	977.090688	-439.994798	209.298959	1290.274762	-258.524956	401.394494	1310.009783	-421.050830	366.729540	1286.796799	-58.583326	411.610209	1233.852500	-380.389744	393.024637	1217.031693	-106.161179	240.850139	1332.086872	-204.319391	249.677558	1339.138448	-289.375811	278.364274	1178.421174	-62.742851	353.824523	1214.114786	-448.192046	288.809825	1026.237494	-41.217199	322.244310	944.111274	-34.072625	315.758041	858.790125	-42.887362	358.887190	949.821379	-37.733576	325.658438	733.627489	-73.461460	349.021661	710.607641	-185.512262	264.099738	581.923215	-39.959964	262.331509	492.512676	-45.852049	215.813109	417.517285	-46.676331	294.304260	484.507747	-66.216188	175.053225	296.173836	-60.396269	245.386573	311.958492	-126.601621	105.656362	292.351349	-98.015259	355.735034	107.051965	-112.469336	248.269101	156.716716	-38.502551	280.920833	166.974349	-150.171087	456.274887	1103.069501	-462.098223	530.332350	1058.348828	-456.216199	552.611476	1081.272690	-440.457351	572.137503	979.251601	-451.644094	657.047165	879.348440	-426.183683	644.143907	868.828632	-294.600849	512.755392	788.252146	-449.414511	453.930780	729.686623	-429.164151	366.758652	703.374639	-429.893396	469.542373	707.411579	-402.771328	255.085881	645.099822	-416.015458	281.890873	640.420898	-321.620102	171.386329	654.454241	-370.641350	396.759659	442.659360	-354.045247	320.656579	503.444628	-315.464903	295.814328	503.263074	-430.684906	-213.920508	945.701550	-231.942475	-9.329508	81.077946	-433.341217	-9.246840	80.718665	-32.946628	
751	3.7550	769.603953	1410.498515	-22.925469	826.869941	1436.875071	-359.236715	754.532371	1528.732202	-191.837829	755.743323	1356.496796	-196.464512	589.455293	1197.104076	82.318043	741.675203	986.805711	-9.981834	658.980568	1238.576058	-515.196337	745.637867	977.324123	-440.053676	209.534866	1293.362301	-258.666445	401.054122	1312.648027	-421.441125	367.431817	1289.794613	-58.820738	411.429513	1236.333105	-380.371963	393.246520	1220.187915	-106.371987	241.187884	1334.835194	-204.538452	250.006384	1342.157041	-289.625657	277.900510	1181.242501	-63.056501	354.731535	1217.637576	-448.005721	287.716266	1028.994793	-41.268267	320.890146	946.724462	-33.949394	314.213307	861.413528	-42.936456	357.538724	952.334962	-37.697369	323.190178	736.132983	-73.389610	347.831819	713.157659	-185.811023	260.688217	584.922320	-40.028909	258.550237	495.569794	-45.861542	211.770048	420.702312	-46.640613	290.491612	487.394468	-65.961037	170.742179	299.517306	-60.221790	230.550253	310.941455	-130.278456	101.480555	296.871862	-98.544170	347.552325	106.401516	-112.380297	241.196492	158.608862	-38.841794	273.925919	167.447727	-150.658364	457.445802	1106.702411	-461.081891	531.465452	1061.960066	-454.666833	555.075676	1085.122567	-437.204699	573.257773	982.937178	-449.816294	658.470420	883.086405	-423.795721	644.889750	872.458302	-291.984266	515.342162	790.497948	-447.517232	457.251968	730.966059	-427.871670	370.415395	703.581157	-429.155874	472.988078	708.917389	-401.511268	259.471761	643.344218	-416.037841	286.601598	639.093216	-321.586245	175.150304	651.066196	-370.949809	405.388248	444.448563	-354.038917	327.643072	503.093571	-316.147658	303.172138	502.563789	-430.594002	-213.932936	945.750348	-232.073844	-9.305166	81.114000	-433.392330	-9.232771	80.793497	-32.956258	
752	3.7600	771.020186	1412.936076	-25.625547	827.004793	1437.378724	-361.818442	755.492215	1530.230201	-194.806993	755.944018	1358.020024	-198.578745	592.056886	1199.166598	81.333276	742.174845	986.517772	-9.150221	658.402869	1238.447026	-516.248144	745.846730	977.637829	-439.888355	209.948888	1296.569215	-259.255285	400.761924	1315.169641	-421.854368	367.792228	1292.961059	-59.608867	411.192032	1238.706561	-380.414089	393.367004	1223.152743	-106.501505	241.651580	1337.768186	-204.712534	250.356368	1345.137234	-289.741211	277.357681	1184.244457	-63.295084	355.588395	1221.102164	-447.847917	286.988370	1031.631165	-41.361322	320.005289	949.326270	-33.933264	313.194499	864.063992	-43.078208	356.758993	954.928098	-37.682036	321.504692	738.420002	-73.281908	346.262678	715.965360	-186.915152	257.914672	587.831180	-40.126410	255.108867	498.523426	-46.014363	207.814440	423.979250	-46.765268	286.373162	489.927551	-66.343105	166.087740	303.053855	-60.211330	212.033336	308.842850	-135.276682	96.926848	301.424604	-99.144546	339.290355	106.523969	-112.510570	234.122292	160.908472	-39.329080	266.702177	168.557183	-151.243156	458.516584	1110.178562	-460.036411	532.361579	1065.375065	-452.871999	557.157448	1088.700606	-434.603360	574.235105	986.423948	-448.070079	660.440282	886.656327	-420.198782	645.565296	875.948055	-289.426703	517.851908	792.474451	-445.740841	460.450245	732.007813	-426.668232	374.575700	702.758020	-426.904058	476.401398	710.050411	-400.360953	263.884079	641.195967	-415.949766	290.695562	637.373646	-321.533851	179.103084	647.224172	-371.274179	414.265892	445.883672	-353.191964	333.408365	502.405662	-317.618810	310.633813	501.279441	-429.751723	-213.900949	945.825724	-232.249315	-9.290528	81.126420	-433.413399	-9.193979	80.837899	-32.961366	
753	3.7650	772.403770	1415.082683	-28.222000	827.093977	1437.650548	-364.259182	756.469522	1532.040349	-197.407766	756.150949	1359.283866	-200.706944	594.721621	1201.159774	80.363033	743.037377	986.459771	-8.682623	657.767082	1238.215481	-517.280679	745.999435	977.865485	-439.705863	210.974288	1300.245977	-257.359043	400.536322	1317.449804	-422.298868	368.149269	1295.886154	-59.905564	410.961625	1240.790077	-380.443328	393.325542	1226.206078	-106.677970	242.383810	1340.408063	-205.240291	251.005115	1347.703048	-290.646920	276.802668	1187.154322	-63.556165	356.384310	1224.377619	-447.680248	286.594526	1034.149831	-41.537906	319.652350	951.904627	-34.022470	312.888369	866.667512	-43.165323	356.423552	957.508772	-37.644065	320.549329	740.668379	-72.944147	345.780885	718.414738	-187.093473	255.743460	590.593360	-40.257375	252.215326	501.555070	-46.094342	203.941698	427.285125	-47.060377	283.335763	492.719090	-66.374393	160.925871	306.716846	-60.514414	189.482744	305.520825	-141.716685	91.861758	305.823329	-99.815972	331.013967	107.316284	-112.641685	226.902790	163.564712	-39.774445	259.164422	169.838096	-152.169305	459.395090	1113.483080	-459.054972	533.216869	1068.668384	-451.328924	558.211516	1091.901937	-432.511798	575.019874	989.725233	-446.411387	661.650339	890.004188	-417.639204	645.932643	879.048909	-287.042142	520.176453	794.031577	-443.957053	463.639664	732.700106	-425.532948	378.167578	702.126588	-426.253899	479.729234	710.792645	-399.311490	268.385227	638.585409	-416.024565	294.845648	635.073763	-321.488303	182.921712	642.932190	-371.639238	422.600449	446.494824	-353.147341	345.573550	504.389306	-311.473756	317.920622	499.840208	-430.009785	-213.860599	945.904135	-232.419148	-9.268837	81.174809	-433.435859	-9.516350	81.305957	-32.910292	
